Coordinates
version=1
nRows=14
nColumns=42
inDegrees=yes

Units are S.I. units (second, meters, Newtons, ...)
Angles are in degrees.

endheader
time	pelvis_tilt	pelvis_list	pelvis_rotation	pelvis_tx	pelvis_ty	pelvis_tz	hip_flexion_r	hip_adduction_r	hip_rotation_r	knee_angle_r	knee_vv_r	knee_rot_r	ankle_angle_r	subtalar_angle_r	mtp_angle_r	hip_flexion_l	hip_adduction_l	hip_rotation_l	knee_angle_l	knee_vv_l	knee_rot_l	ankle_angle_l	subtalar_angle_l	mtp_angle_l	lumbar_extension	lumbar_bending	lumbar_rotation	arm_flex_r	arm_add_r	arm_rot_r	elbow_flex_r	pro_sup_r	wrist_flex_r	wrist_dev_r	arm_flex_l	arm_add_l	arm_rot_l	elbow_flex_l	pro_sup_l	wrist_flex_l	wrist_dev_l
      5.47000000	     -4.52859666	     -5.11955425	      1.67969942	      0.15654667	      0.96765949	      2.64032988	     -6.16141351	      5.55697617	      1.75759312	    -20.53726612	     -1.42011584	      6.69493912	     -6.59884258	      0.00000000	      0.00000000	     32.47236402	     -6.21275482	     17.90395650	    -61.81640412	     -7.71133045	     13.48462538	     -6.47154577	      0.00000000	      0.00000000	    -14.42166056	      3.93397479	      7.89475320	    -17.68105550	    -28.80720235	    -14.85052879	    131.75213709	     86.51662706	      0.00000000	      0.00000000	    -33.27986073	    -21.83765743	     -6.56773963	    120.15793558	     85.94366927	      0.00000000	      0.00000000
      5.48000000	     -4.83854552	     -4.48596801	      1.89507609	      0.15857888	      0.97465682	      2.63898855	     -7.90791247	      4.46396190	      2.33250590	    -18.30064396	     -0.70741736	      5.81650190	    -11.96131930	      0.00000000	      0.00000000	     32.50176971	     -5.71752572	     19.11031856	    -54.77595907	     -8.69830663	     14.72413844	     -6.98178857	      0.00000000	      0.00000000	    -13.88042464	      3.25761588	      8.04024605	    -18.20286698	    -28.54441282	    -14.03213125	    131.93468166	     86.51662706	      0.00000000	      0.00000000	    -34.24951807	    -21.56985693	     -7.08384315	    120.44186065	     85.94366927	      0.00000000	      0.00000000
      5.49000000	     -5.16539556	     -3.92874997	      2.06048556	      0.16061255	      0.98083375	      2.63788991	     -9.41147866	      3.52113482	      2.60684524	    -16.48694082	     -0.23480272	      5.12722846	    -16.82557219	      0.00000000	      0.00000000	     32.25018903	     -5.40689133	     20.03637986	    -47.36153047	     -9.11711551	     15.72007818	     -7.76988051	      0.00000000	      0.00000000	    -13.32747373	      2.62663131	      8.19956971	    -18.76762713	    -28.28137222	    -13.13365359	    131.99843816	     86.51662706	      0.00000000	      0.00000000	    -35.15446689	    -21.35448187	     -7.61269592	    120.78410084	     85.94366927	      0.00000000	      0.00000000
      5.50000000	     -5.47125637	     -3.51154122	      2.18112774	      0.16262511	      0.98598976	      2.63709316	    -10.64951613	      2.80680070	      2.55910389	    -15.33536319	     -0.05135951	      4.66264827	    -20.86094256	      0.00000000	      0.00000000	     31.73040043	     -5.33753289	     20.46799679	    -39.80790143	     -8.84571728	     16.24917024	     -8.81840919	      0.00000000	      0.00000000	    -12.80210254	      2.10515579	      8.37954320	    -19.35564638	    -28.04754543	    -12.17449713	    131.92975956	     86.51662706	      0.00000000	      0.00000000	    -35.99150125	    -21.19498794	     -8.15526563	    121.19813607	     85.94366927	      0.00000000	      0.00000000
      5.51000000	     -5.70238794	     -3.27752192	      2.24442601	      0.16471164	      0.99003175	      2.63661288	    -11.61908913	      2.37272210	      2.25880872	    -15.03932497	     -0.14913497	      4.36889734	    -23.83764348	      0.00000000	      0.00000000	     30.97918257	     -5.52807671	     20.18906214	    -32.42173643	     -7.92073307	     16.14108540	    -10.09036213	      0.00000000	      0.00000000	    -12.35946697	      1.74541377	      8.58502048	    -19.94010925	    -27.87413345	    -11.15561774	    131.73770364	     86.51662706	      0.00000000	      0.00000000	    -36.75000644	    -21.07842177	     -8.70935866	    121.68147234	     85.94366927	      0.00000000	      0.00000000
      5.52000000	     -5.81152806	     -3.23311565	      2.22977256	      0.16678201	      0.99297157	      2.63635432	    -12.33011657	      2.22485135	      1.86072026	    -15.71464933	     -0.47436479	      4.11239047	    -25.67077778	      0.00000000	      0.00000000	     30.06303292	     -5.94542596	     19.03133860	    -25.55357234	     -6.53616580	     15.33127983	    -11.52803854	      0.00000000	      0.00000000	    -12.05836558	      1.56939417	      8.81888734	    -20.48846105	    -27.78161462	    -10.06116202	    131.46671122	     86.51662706	      0.00000000	      0.00000000	    -37.40956006	    -20.98311320	     -9.26779281	    122.21647167	     85.94366927	      0.00000000	      0.00000000
      5.53000000	     -5.78043519	     -3.34539172	      2.12469553	      0.16865648	      0.99489933	      2.63624727	    -12.79738916	      2.31933706	      1.57667011	    -17.38465051	     -0.94351606	      3.71765639	    -26.43207644	      0.00000000	      0.00000000	     29.06781670	     -6.51424568	     16.93669821	    -19.55092909	     -4.98491455	     13.88591194	    -13.05584662	      0.00000000	      0.00000000	    -11.94311894	      1.56281895	      9.07690902	    -20.96579744	    -27.77073145	     -8.86701982	    131.19646858	     86.51662706	      0.00000000	      0.00000000	    -37.94102773	    -20.88859854	     -9.81828010	    122.77475224	     85.94366927	      0.00000000	      0.00000000
      5.54000000	     -5.61976756	     -3.55436998	      1.93513659	      0.17025187	      0.99593183	      2.63625881	    -13.03363460	      2.58049157	      1.62767703	    -19.98477138	     -1.45452431	      3.02335494	    -26.32625434	      0.00000000	      0.00000000	     28.08300458	     -7.14248799	     14.00763219	    -14.70360182	     -3.56571931	     11.98972267	    -14.58527319	      0.00000000	      0.00000000	    -12.02746887	      1.68095153	      9.34228478	    -21.34071598	    -27.82097817	     -7.55429831	    131.02036602	     86.51662706	      0.00000000	      0.00000000	    -38.31054950	    -20.78438589	    -10.34516594	    123.32454480	     85.94366927	      0.00000000	      0.00000000
      5.55000000	     -5.34906008	     -3.79863062	      1.68637130	      0.17156664	      0.99610282	      2.63632845	    -13.04813375	      2.92906581	      2.18542985	    -23.38679351	     -1.89374195	      1.93675270	    -25.63816758	      0.00000000	      0.00000000	     27.18804951	     -7.74663769	     10.52096189	    -11.19948283	     -2.49426374	      9.90227446	    -16.01765871	      0.00000000	      0.00000000	    -12.28947414	      1.86116166	      9.58494043	    -21.59314451	    -27.89757256	     -6.12445083	    131.00217908	     86.51662706	      0.00000000	      0.00000000	    -38.48608194	    -20.67510283	    -10.83240970	    123.83875922	     85.94366927	      0.00000000	      0.00000000
      5.56000000	     -4.98491583	     -4.03352653	      1.41718323	      0.17261008	      0.99534839	      2.63638278	    -12.85083538	      3.30560258	      3.31882139	    -27.43453651	     -2.14390715	      0.46611718	    -24.66425373	      0.00000000	      0.00000000	     26.43601751	     -8.26684425	      6.89072689	     -9.10574085	     -1.85272776	      7.89771590	    -17.23974076	      0.00000000	      0.00000000	    -12.68201573	      2.03738869	      9.76686040	    -21.72186459	    -27.96405146	     -4.61223293	    131.12451981	     86.51662706	      0.00000000	      0.00000000	    -38.44557715	    -20.58145257	    -11.26685050	    124.30104009	     85.94366927	      0.00000000	      0.00000000
      5.57000000	     -4.54626246	     -4.22464573	      1.17049763	      0.17337105	      0.99366119	      2.63631831	    -12.45564217	      3.67636743	      4.96496132	    -31.97625820	     -2.09979102	     -1.28073515	    -23.64609793	      0.00000000	      0.00000000	     25.83823295	     -8.67055727	      3.58473385	     -8.37415525	     -1.59331521	      6.20427968	    -18.11219362	      0.00000000	      0.00000000	    -13.15433717	      2.15206966	      9.85112058	    -21.74863541	    -27.99436096	     -3.09043031	    131.25615442	     86.51662706	      0.00000000	      0.00000000	    -38.18414079	    -20.53751592	    -11.64048031	    124.70783058	     85.94366927	      0.00000000	      0.00000000
      5.58000000	     -4.05948846	     -4.33099194	      0.98240450	      0.17380223	      0.99105458	      2.63603010	    -11.87932164	      4.01621474	      6.93990366	    -36.88345640	     -1.69534565	     -3.12994079	    -22.72366849	      0.00000000	      0.00000000	     25.36350790	     -8.94246583	      1.01628538	     -8.85917861	     -1.58986807	      4.95712830	    -18.46085962	      0.00000000	      0.00000000	    -13.67184295	      2.16085857	      9.81093728	    -21.71575864	    -27.97757416	     -1.65931048	    131.16926526	     86.51662706	      0.00000000	      0.00000000	    -37.71599977	    -20.58499175	    -11.95018477	    125.06587574	     85.94366927	      0.00000000	      0.00000000
      5.59000000	     -3.54904817	     -4.30415083	      0.87063460	      0.17390130	      0.98739187	      2.63557456	    -11.13781352	      4.28157881	      8.98902608	    -42.05558682	     -0.93363197	     -4.89283490	    -21.92033082	      0.00000000	      0.00000000	     24.95492650	     -9.06291194	     -0.55690481	    -10.34280442	     -1.70992536	      4.17665259	    -18.08561854	      0.00000000	      0.00000000	    -14.22065485	      2.02749194	      9.63567709	    -21.67504892	    -27.91215258	     -0.41913021	    130.62036864	     86.51662706	      0.00000000	      0.00000000	    -37.06821367	    -20.76491049	    -12.19403145	    125.38595961	     85.94366927	      0.00000000	      0.00000000
      5.60000000	     -3.02414641	     -4.10503556	      0.82598201	      0.17384577	      0.98250210	      2.63517007	    -10.24251337	      4.40001517	     10.85812569	    -47.41563710	      0.10062355	     -6.41452557	    -21.16302722	      0.00000000	      0.00000000	     24.54872532	     -8.98912911	     -1.09311784	    -12.57038664	     -1.86637489	      3.78104056	    -16.79672642	      0.00000000	      0.00000000	    -14.79660752	      1.71626654	      9.33235978	    -21.67095099	    -27.79498086	      0.56372849	    129.46409130	     86.51662706	      0.00000000	      0.00000000	    -36.26731037	    -21.10786419	    -12.36492307	    125.67429068	     85.94366927	      0.00000000	      0.00000000
